solid GHU
facet normal 0.925934612024195 -0.37768385490460604 -1.6644776880529065e-16
  outer loop
    vertex 435.3725092162536 61.72930995326509 90.16511148779406
    vertex 419.80692824261115 23.568530792077222 177.2651114877941
    vertex 419.80692824261115 23.568530792077222 90.16511148779405
  endloop
endfacet
facet normal 0.925934612024195 -0.37768385490460604 -1.6644776880529065e-16
  outer loop
    vertex 419.80692824261115 23.568530792077222 177.2651114877941
    vertex 435.3725092162536 61.72930995326509 90.16511148779406
    vertex 419.88246501359214 23.753717714482057 177.2651114877941
  endloop
endfacet
facet normal 0.925934612024195 -0.37768385490460604 -1.6644776880529065e-16
  outer loop
    vertex 419.88246501359214 23.753717714482057 177.2651114877941
    vertex 435.3725092162536 61.72930995326509 90.16511148779406
    vertex 435.3725092162536 61.72930995326509 177.26511148779406
  endloop
endfacet
facet normal 1.0 -4.438058899098156e-15 -7.648544897445119e-16
  outer loop
    vertex 419.806928242611 -8.408095265980348 92.16757138514065
    vertex 419.806928242611 -8.502555384734892 174.55133737615938
    vertex 419.806928242611 -8.502555384734892 92.87888559942867
  endloop
endfacet
facet normal 1.0 -4.438058899098156e-15 -7.648544897445119e-16
  outer loop
    vertex 419.806928242611 -8.502555384734892 174.55133737615938
    vertex 419.806928242611 -8.408095265980348 92.16757138514065
    vertex 419.806928242611 -8.408095265980348 175.2626515904475
  endloop
endfacet
facet normal 1.0 -4.438058899098156e-15 -7.648544897445119e-16
  outer loop
    vertex 419.806928242611 -8.408095265980348 175.2626515904475
    vertex 419.806928242611 -8.408095265980348 92.16757138514065
    vertex 419.806928242611 -8.136232340919028 91.51689091273157
  endloop
endfacet
facet normal 1.0 -4.438058899098156e-15 -7.648544897445119e-16
  outer loop
    vertex 419.806928242611 -8.408095265980348 175.2626515904475
    vertex 419.806928242611 -8.136232340919028 91.51689091273157
    vertex 419.806928242611 -8.136232340919038 175.91333206285654
  endloop
endfacet
facet normal 1.0 -4.438058899098156e-15 -7.648544897445119e-16
  outer loop
    vertex 419.806928242611 -8.136232340919038 175.91333206285654
    vertex 419.806928242611 -8.136232340919028 91.51689091273157
    vertex 419.80692824261115 -7.703576014989604 176.4723228978585
  endloop
endfacet
facet normal 1.0 -4.438058899098156e-15 -7.648544897445119e-16
  outer loop
    vertex 419.80692824261115 -7.703576014989604 176.4723228978585
    vertex 419.806928242611 -8.136232340919028 91.51689091273157
    vertex 419.806928242611 -7.703576014989638 90.95790007772966
  endloop
endfacet
facet normal 1.0 -4.438058899098156e-15 -7.648544897445119e-16
  outer loop
    vertex 419.80692824261115 -7.703576014989604 176.4723228978585
    vertex 419.806928242611 -7.703576014989638 90.95790007772966
    vertex 419.806928242611 -7.139451822571612 90.52876175376892
  endloop
endfacet
facet normal 1.0 -4.438058899098156e-15 -7.648544897445119e-16
  outer loop
    vertex 419.80692824261115 -7.703576014989604 176.4723228978585
    vertex 419.806928242611 -7.139451822571612 90.52876175376892
    vertex 419.806928242611 -7.13945182257159 176.90146122181912
  endloop
endfacet
facet normal 1.0 -4.438058899098156e-15 -7.648544897445119e-16
  outer loop
    vertex 419.806928242611 -7.13945182257159 176.90146122181912
    vertex 419.806928242611 -7.139451822571612 90.52876175376892
    vertex 419.806928242611 -6.482240142456316 90.25888113914824
  endloop
endfacet
facet normal 1.0 -4.438058899098156e-15 -7.648544897445119e-16
  outer loop
    vertex 419.806928242611 -7.13945182257159 176.90146122181912
    vertex 419.806928242611 -6.482240142456316 90.25888113914824
    vertex 419.806928242611 -6.482240142456282 177.17134183643984
  endloop
endfacet
facet normal 1.0 -4.438058899098156e-15 -7.648544897445119e-16
  outer loop
    vertex 419.806928242611 -6.482240142456282 177.17134183643984
    vertex 419.806928242611 -6.482240142456316 90.25888113914824
    vertex 419.806928242611 -5.7637991633721 90.16511148779405
  endloop
endfacet
facet normal 1.0 -4.438058899098156e-15 -7.648544897445119e-16
  outer loop
    vertex 419.806928242611 -6.482240142456282 177.17134183643984
    vertex 419.806928242611 -5.7637991633721 90.16511148779405
    vertex 419.8069282426114 -5.7637991633721 177.26511148779406
  endloop
endfacet
facet normal 1.0 -4.438058899098156e-15 -7.648544897445119e-16
  outer loop
    vertex 419.8069282426114 -5.7637991633721 177.26511148779406
    vertex 419.806928242611 -5.7637991633721 90.16511148779405
    vertex 419.80692824261115 23.568530792077222 90.16511148779405
  endloop
endfacet
facet normal 1.0 -4.438058899098156e-15 -7.648544897445119e-16
  outer loop
    vertex 419.8069282426114 -5.7637991633721 177.26511148779406
    vertex 419.80692824261115 23.568530792077222 90.16511148779405
    vertex 419.80692824261115 23.568530792077222 177.2651114877941
  endloop
endfacet
facet normal -1.332797946214946e-15 -0.12942055368592775 -0.9915897943623805
  outer loop
    vertex 419.806928242611 -5.7637991633721 90.16511148779405
    vertex 418.306928242611 -6.482240142456305 90.25888113914824
    vertex 418.306928242611 -5.763799163372089 90.16511148779405
  endloop
endfacet
facet normal -1.332797946214946e-15 -0.12942055368592775 -0.9915897943623805
  outer loop
    vertex 418.306928242611 -6.482240142456305 90.25888113914824
    vertex 419.806928242611 -5.7637991633721 90.16511148779405
    vertex 419.806928242611 -6.482240142456316 90.25888113914824
  endloop
endfacet
facet normal -2.3933812704362882e-15 -0.379863920806573 -0.9250423783100198
  outer loop
    vertex 419.806928242611 -6.482240142456316 90.25888113914824
    vertex 418.306928242611 -7.1394518225716 90.52876175376892
    vertex 418.306928242611 -6.482240142456305 90.25888113914824
  endloop
endfacet
facet normal -2.3933812704362882e-15 -0.379863920806573 -0.9250423783100198
  outer loop
    vertex 418.306928242611 -7.1394518225716 90.52876175376892
    vertex 419.806928242611 -6.482240142456316 90.25888113914824
    vertex 419.806928242611 -7.139451822571612 90.52876175376892
  endloop
endfacet
facet normal -3.2957362849879912e-15 -0.6054444441519091 -0.7958875706062922
  outer loop
    vertex 419.806928242611 -7.139451822571612 90.52876175376892
    vertex 418.306928242611 -7.703576014989626 90.95790007772966
    vertex 418.306928242611 -7.1394518225716 90.52876175376892
  endloop
endfacet
facet normal -3.2957362849879912e-15 -0.6054444441519091 -0.7958875706062922
  outer loop
    vertex 418.306928242611 -7.703576014989626 90.95790007772966
    vertex 419.806928242611 -7.139451822571612 90.52876175376892
    vertex 419.806928242611 -7.703576014989638 90.95790007772966
  endloop
endfacet
facet normal -3.977763485210877e-15 -0.7907995577866661 -0.6120752073106812
  outer loop
    vertex 419.806928242611 -8.136232340919028 91.51689091273157
    vertex 418.306928242611 -7.703576014989626 90.95790007772966
    vertex 419.806928242611 -7.703576014989638 90.95790007772966
  endloop
endfacet
facet normal -3.977763485210877e-15 -0.7907995577866661 -0.6120752073106812
  outer loop
    vertex 418.306928242611 -7.703576014989626 90.95790007772966
    vertex 419.806928242611 -8.136232340919028 91.51689091273157
    vertex 418.306928242611 -8.136232340919015 91.51689091273157
  endloop
endfacet
facet normal -4.3898649832264614e-15 -0.9227008770399908 -0.3855166552947252
  outer loop
    vertex 419.806928242611 -8.408095265980348 92.16757138514065
    vertex 418.306928242611 -8.136232340919015 91.51689091273157
    vertex 419.806928242611 -8.136232340919028 91.51689091273157
  endloop
endfacet
facet normal -4.3898649832264614e-15 -0.9227008770399908 -0.3855166552947252
  outer loop
    vertex 418.306928242611 -8.136232340919015 91.51689091273157
    vertex 419.806928242611 -8.408095265980348 92.16757138514065
    vertex 418.306928242611 -8.408095265980338 92.16757138514065
  endloop
endfacet
facet normal -4.500122698572392e-15 -0.991297463587112 -0.1316409460834992
  outer loop
    vertex 419.806928242611 -8.502555384734892 92.87888559942867
    vertex 418.306928242611 -8.408095265980338 92.16757138514065
    vertex 419.806928242611 -8.408095265980348 92.16757138514065
  endloop
endfacet
facet normal -4.500122698572392e-15 -0.991297463587112 -0.1316409460834992
  outer loop
    vertex 418.306928242611 -8.408095265980338 92.16757138514065
    vertex 419.806928242611 -8.502555384734892 92.87888559942867
    vertex 418.306928242611 -8.50255538473488 92.87888559942867
  endloop
endfacet
facet normal -4.4380588990981564e-15 -1.0 0.0
  outer loop
    vertex 419.806928242611 -8.502555384734892 174.55133737615938
    vertex 418.306928242611 -8.50255538473488 92.87888559942867
    vertex 419.806928242611 -8.502555384734892 92.87888559942867
  endloop
endfacet
facet normal -4.4380588990981564e-15 -1.0 0.0
  outer loop
    vertex 418.306928242611 -8.50255538473488 92.87888559942867
    vertex 419.806928242611 -8.502555384734892 174.55133737615938
    vertex 418.306928242611 -8.50255538473488 174.55133737615938
  endloop
endfacet
facet normal -4.2987503612800544e-15 -0.991297463587114 0.13164094608348276
  outer loop
    vertex 419.806928242611 -8.408095265980348 175.2626515904475
    vertex 418.306928242611 -8.50255538473488 174.55133737615938
    vertex 419.806928242611 -8.502555384734892 174.55133737615938
  endloop
endfacet
facet normal -4.2987503612800544e-15 -0.991297463587114 0.13164094608348276
  outer loop
    vertex 418.306928242611 -8.50255538473488 174.55133737615938
    vertex 419.806928242611 -8.408095265980348 175.2626515904475
    vertex 418.306928242611 -8.408095265980338 175.2626515904475
  endloop
endfacet
facet normal -3.8001366938795375e-15 -0.9227008770399894 0.38551665529472867
  outer loop
    vertex 419.806928242611 -8.136232340919038 175.91333206285654
    vertex 418.306928242611 -8.408095265980338 175.2626515904475
    vertex 419.806928242611 -8.408095265980348 175.2626515904475
  endloop
endfacet
facet normal -3.8001366938795375e-15 -0.9227008770399894 0.38551665529472867
  outer loop
    vertex 418.306928242611 -8.408095265980338 175.2626515904475
    vertex 419.806928242611 -8.136232340919038 175.91333206285654
    vertex 418.306928242611 -8.136232340919028 175.91333206285654
  endloop
endfacet
facet normal -3.0414665444650848e-15 -0.7907995577866592 0.6120752073106902
  outer loop
    vertex 419.80692824261115 -7.703576014989604 176.4723228978585
    vertex 418.306928242611 -8.136232340919028 175.91333206285654
    vertex 419.806928242611 -8.136232340919038 175.91333206285654
  endloop
endfacet
facet normal -3.0414665444650848e-15 -0.7907995577866592 0.6120752073106902
  outer loop
    vertex 418.306928242611 -8.136232340919028 175.91333206285654
    vertex 419.80692824261115 -7.703576014989604 176.4723228978585
    vertex 418.30692824261115 -7.703576014989593 176.4723228978585
  endloop
endfacet
facet normal -2.0782599215673747e-15 -0.605444444151816 0.7958875706063631
  outer loop
    vertex 418.30692824261115 -7.703576014989593 176.4723228978585
    vertex 419.806928242611 -7.13945182257159 176.90146122181912
    vertex 418.306928242611 -7.139451822571578 176.90146122181912
  endloop
endfacet
facet normal -2.0782599215673747e-15 -0.605444444151816 0.7958875706063631
  outer loop
    vertex 419.806928242611 -7.13945182257159 176.90146122181912
    vertex 418.30692824261115 -7.703576014989593 176.4723228978585
    vertex 419.80692824261115 -7.703576014989604 176.4723228978585
  endloop
endfacet
facet normal -9.783356379277358e-16 -0.3798639208066082 0.9250423783100054
  outer loop
    vertex 419.806928242611 -7.13945182257159 176.90146122181912
    vertex 418.306928242611 -6.482240142456272 177.17134183643984
    vertex 418.306928242611 -7.139451822571578 176.90146122181912
  endloop
endfacet
facet normal -9.783356379277358e-16 -0.3798639208066082 0.9250423783100054
  outer loop
    vertex 418.306928242611 -6.482240142456272 177.17134183643984
    vertex 419.806928242611 -7.13945182257159 176.90146122181912
    vertex 419.806928242611 -6.482240142456282 177.17134183643984
  endloop
endfacet
facet normal 1.8404586619069524e-16 -0.12942055368596436 0.9915897943623756
  outer loop
    vertex 419.806928242611 -6.482240142456282 177.17134183643984
    vertex 418.3069282426113 -5.763799163372089 177.26511148779406
    vertex 418.306928242611 -6.482240142456272 177.17134183643984
  endloop
endfacet
facet normal 1.8404586619069524e-16 -0.12942055368596436 0.9915897943623756
  outer loop
    vertex 418.3069282426113 -5.763799163372089 177.26511148779406
    vertex 419.806928242611 -6.482240142456282 177.17134183643984
    vertex 419.8069282426114 -5.7637991633721 177.26511148779406
  endloop
endfacet
facet normal 1.3265356992307499e-16 -1.0 3.191150319227045e-17
  outer loop
    vertex 450.64159128614807 61.72930995326509 90.16511148779408
    vertex 435.3725092162536 61.72930995326509 177.26511148779406
    vertex 435.3725092162536 61.72930995326509 90.16511148779406
  endloop
endfacet
facet normal 1.3265356992307499e-16 -1.0 3.191150319227045e-17
  outer loop
    vertex 435.3725092162536 61.72930995326509 177.26511148779406
    vertex 450.64159128614807 61.72930995326509 90.16511148779408
    vertex 451.35091078305294 61.72930995326509 90.2587689971217
  endloop
endfacet
facet normal 1.3265356992307499e-16 -1.0 3.191150319227045e-17
  outer loop
    vertex 435.3725092162536 61.72930995326509 177.26511148779406
    vertex 451.35091078305294 61.72930995326509 90.2587689971217
    vertex 451.99969473873534 61.72930995326509 90.52829211394969
  endloop
endfacet
facet normal 1.3265356992307499e-16 -1.0 3.191150319227045e-17
  outer loop
    vertex 435.3725092162536 61.72930995326509 177.26511148779406
    vertex 451.99969473873534 61.72930995326509 90.52829211394969
    vertex 452.55689868705514 61.72930995326509 90.95710345478957
  endloop
endfacet
facet normal 1.3265356992307499e-16 -1.0 3.191150319227045e-17
  outer loop
    vertex 435.3725092162536 61.72930995326509 177.26511148779406
    vertex 452.55689868705514 61.72930995326509 90.95710345478957
    vertex 452.98452743629764 61.72930995326509 91.5160342339705
  endloop
endfacet
facet normal 1.3265356992307499e-16 -1.0 3.191150319227045e-17
  outer loop
    vertex 435.3725092162536 61.72930995326509 177.26511148779406
    vertex 452.98452743629764 61.72930995326509 91.5160342339705
    vertex 453.2533846978425 61.72930995326509 92.16701635417215
  endloop
endfacet
facet normal 1.3265356992307499e-16 -1.0 3.191150319227045e-17
  outer loop
    vertex 435.3725092162536 61.72930995326509 177.26511148779406
    vertex 453.2533846978425 61.72930995326509 92.16701635417215
    vertex 453.34681024260846 61.72930995326509 92.87873466719074
  endloop
endfacet
facet normal 1.3265356992307499e-16 -1.0 3.191150319227045e-17
  outer loop
    vertex 435.3725092162536 61.72930995326509 177.26511148779406
    vertex 453.34681024260846 61.72930995326509 92.87873466719074
    vertex 453.34681024260846 61.72930995326511 174.551488308397
  endloop
endfacet
facet normal 1.3265356992307499e-16 -1.0 3.191150319227045e-17
  outer loop
    vertex 435.3725092162536 61.72930995326509 177.26511148779406
    vertex 453.34681024260846 61.72930995326511 174.551488308397
    vertex 453.2533846978425 61.72930995326507 175.26320662141566
  endloop
endfacet
facet normal 1.3265356992307499e-16 -1.0 3.191150319227045e-17
  outer loop
    vertex 435.3725092162536 61.72930995326509 177.26511148779406
    vertex 453.2533846978425 61.72930995326507 175.26320662141566
    vertex 452.9845274362978 61.7293099532651 175.91418874161747
  endloop
endfacet
facet normal 1.3265356992307499e-16 -1.0 3.191150319227045e-17
  outer loop
    vertex 435.3725092162536 61.72930995326509 177.26511148779406
    vertex 452.9845274362978 61.7293099532651 175.91418874161747
    vertex 452.55689868705497 61.72930995326509 176.4731195207987
  endloop
endfacet
facet normal 1.3265356992307499e-16 -1.0 3.191150319227045e-17
  outer loop
    vertex 435.3725092162536 61.72930995326509 177.26511148779406
    vertex 452.55689868705497 61.72930995326509 176.4731195207987
    vertex 451.99969473873534 61.72930995326509 176.90193086163808
  endloop
endfacet
facet normal 1.3265356992307499e-16 -1.0 3.191150319227045e-17
  outer loop
    vertex 435.3725092162536 61.72930995326509 177.26511148779406
    vertex 451.99969473873534 61.72930995326509 176.90193086163808
    vertex 451.35091078305334 61.72930995326509 177.1714539784661
  endloop
endfacet
facet normal 1.3265356992307499e-16 -1.0 3.191150319227045e-17
  outer loop
    vertex 435.3725092162536 61.72930995326509 177.26511148779406
    vertex 451.35091078305334 61.72930995326509 177.1714539784661
    vertex 450.64159128614807 61.72930995326509 177.2651114877941
  endloop
endfacet
facet normal 3.9319677000329783e-16 1.0 -7.23002767373971e-17
  outer loop
    vertex 434.36436651857133 63.22930995326511 177.2651114877941
    vertex 437.26293245604006 63.22930995326509 90.16511148779406
    vertex 434.36436651857133 63.22930995326509 90.16511148779406
  endloop
endfacet
facet normal 3.9319677000329783e-16 1.0 -7.23002767373971e-17
  outer loop
    vertex 437.26293245604006 63.22930995326509 90.16511148779406
    vertex 434.36436651857133 63.22930995326511 177.2651114877941
    vertex 450.64159128614807 63.22930995326509 90.16511148779408
  endloop
endfacet
facet normal 3.9319677000329783e-16 1.0 -7.23002767373971e-17
  outer loop
    vertex 450.64159128614807 63.22930995326509 90.16511148779408
    vertex 434.36436651857133 63.22930995326511 177.2651114877941
    vertex 451.35091078305294 63.22930995326509 90.2587689971217
  endloop
endfacet
facet normal 3.9319677000329783e-16 1.0 -7.23002767373971e-17
  outer loop
    vertex 451.35091078305294 63.22930995326509 90.2587689971217
    vertex 434.36436651857133 63.22930995326511 177.2651114877941
    vertex 451.99969473873534 63.22930995326509 90.52829211394969
  endloop
endfacet
facet normal 3.9319677000329783e-16 1.0 -7.23002767373971e-17
  outer loop
    vertex 451.99969473873534 63.22930995326509 90.52829211394969
    vertex 434.36436651857133 63.22930995326511 177.2651114877941
    vertex 452.55689868705514 63.22930995326509 90.95710345478957
  endloop
endfacet
facet normal 3.9319677000329783e-16 1.0 -7.23002767373971e-17
  outer loop
    vertex 452.55689868705514 63.22930995326509 90.95710345478957
    vertex 434.36436651857133 63.22930995326511 177.2651114877941
    vertex 452.98452743629764 63.22930995326509 91.5160342339705
  endloop
endfacet
facet normal 3.9319677000329783e-16 1.0 -7.23002767373971e-17
  outer loop
    vertex 452.98452743629764 63.22930995326509 91.5160342339705
    vertex 434.36436651857133 63.22930995326511 177.2651114877941
    vertex 453.2533846978425 63.22930995326509 92.16701635417215
  endloop
endfacet
facet normal 3.9319677000329783e-16 1.0 -7.23002767373971e-17
  outer loop
    vertex 453.2533846978425 63.22930995326509 92.16701635417215
    vertex 434.36436651857133 63.22930995326511 177.2651114877941
    vertex 453.34681024260846 63.22930995326509 92.87873466719074
  endloop
endfacet
facet normal 3.9319677000329783e-16 1.0 -7.23002767373971e-17
  outer loop
    vertex 453.34681024260846 63.22930995326509 92.87873466719074
    vertex 434.36436651857133 63.22930995326511 177.2651114877941
    vertex 453.34681024260846 63.22930995326511 174.551488308397
  endloop
endfacet
facet normal 3.9319677000329783e-16 1.0 -7.23002767373971e-17
  outer loop
    vertex 453.34681024260846 63.22930995326511 174.551488308397
    vertex 434.36436651857133 63.22930995326511 177.2651114877941
    vertex 453.2533846978425 63.22930995326507 175.26320662141566
  endloop
endfacet
facet normal 3.9319677000329783e-16 1.0 -7.23002767373971e-17
  outer loop
    vertex 453.2533846978425 63.22930995326507 175.26320662141566
    vertex 434.36436651857133 63.22930995326511 177.2651114877941
    vertex 452.9845274362978 63.229309953265094 175.91418874161747
  endloop
endfacet
facet normal 3.9319677000329783e-16 1.0 -7.23002767373971e-17
  outer loop
    vertex 452.9845274362978 63.229309953265094 175.91418874161747
    vertex 434.36436651857133 63.22930995326511 177.2651114877941
    vertex 452.55689868705497 63.22930995326509 176.4731195207987
  endloop
endfacet
facet normal 3.9319677000329783e-16 1.0 -7.23002767373971e-17
  outer loop
    vertex 452.55689868705497 63.22930995326509 176.4731195207987
    vertex 434.36436651857133 63.22930995326511 177.2651114877941
    vertex 451.99969473873534 63.22930995326509 176.90193086163808
  endloop
endfacet
facet normal 3.9319677000329783e-16 1.0 -7.23002767373971e-17
  outer loop
    vertex 451.99969473873534 63.22930995326509 176.90193086163808
    vertex 434.36436651857133 63.22930995326511 177.2651114877941
    vertex 451.35091078305334 63.22930995326509 177.1714539784661
  endloop
endfacet
facet normal 3.9319677000329783e-16 1.0 -7.23002767373971e-17
  outer loop
    vertex 451.35091078305334 63.22930995326509 177.1714539784661
    vertex 434.36436651857133 63.22930995326511 177.2651114877941
    vertex 450.64159128614807 63.22930995326509 177.2651114877941
  endloop
endfacet
facet normal 7.140147232319065e-16 -6.970423751630632e-18 -1.0
  outer loop
    vertex 434.36436651857133 63.22930995326509 90.16511148779406
    vertex 418.30692824261115 21.949567607407428 90.16511148779405
    vertex 418.30692824261115 23.862687083166904 90.16511148779405
  endloop
endfacet
facet normal 7.140147232319065e-16 -6.970423751630632e-18 -1.0
  outer loop
    vertex 418.30692824261115 21.949567607407428 90.16511148779405
    vertex 434.36436651857133 63.22930995326509 90.16511148779406
    vertex 419.80692824261115 23.568530792077222 90.16511148779405
  endloop
endfacet
facet normal 7.140147232319065e-16 -6.970423751630632e-18 -1.0
  outer loop
    vertex 418.30692824261115 21.949567607407428 90.16511148779405
    vertex 419.80692824261115 23.568530792077222 90.16511148779405
    vertex 419.806928242611 -5.7637991633721 90.16511148779405
  endloop
endfacet
facet normal 7.140147232319065e-16 -6.970423751630632e-18 -1.0
  outer loop
    vertex 419.80692824261115 23.568530792077222 90.16511148779405
    vertex 434.36436651857133 63.22930995326509 90.16511148779406
    vertex 435.3725092162536 61.72930995326509 90.16511148779406
  endloop
endfacet
facet normal 7.140147232319065e-16 -6.970423751630632e-18 -1.0
  outer loop
    vertex 435.3725092162536 61.72930995326509 90.16511148779406
    vertex 434.36436651857133 63.22930995326509 90.16511148779406
    vertex 437.26293245604006 63.22930995326509 90.16511148779406
  endloop
endfacet
facet normal 7.140147232319065e-16 -6.970423751630632e-18 -1.0
  outer loop
    vertex 435.3725092162536 61.72930995326509 90.16511148779406
    vertex 437.26293245604006 63.22930995326509 90.16511148779406
    vertex 450.64159128614807 61.72930995326509 90.16511148779408
  endloop
endfacet
facet normal 7.140147232319065e-16 -6.970423751630632e-18 -1.0
  outer loop
    vertex 450.64159128614807 61.72930995326509 90.16511148779408
    vertex 437.26293245604006 63.22930995326509 90.16511148779406
    vertex 450.64159128614807 63.22930995326509 90.16511148779408
  endloop
endfacet
facet normal 7.140147232319065e-16 -6.970423751630632e-18 -1.0
  outer loop
    vertex 419.806928242611 -5.7637991633721 90.16511148779405
    vertex 418.306928242611 -5.763799163372089 90.16511148779405
    vertex 418.30692824261115 21.949567607407428 90.16511148779405
  endloop
endfacet
facet normal 0.13090238102363147 0.0 -0.9913952625680355
  outer loop
    vertex 451.35091078305294 63.22930995326509 90.2587689971217
    vertex 450.64159128614807 61.72930995326509 90.16511148779408
    vertex 450.64159128614807 63.22930995326509 90.16511148779408
  endloop
endfacet
facet normal 0.13090238102363147 0.0 -0.9913952625680355
  outer loop
    vertex 450.64159128614807 61.72930995326509 90.16511148779408
    vertex 451.35091078305294 63.22930995326509 90.2587689971217
    vertex 451.35091078305294 61.72930995326509 90.2587689971217
  endloop
endfacet
facet normal 0.3836406134017153 0.0 -0.9234824739802894
  outer loop
    vertex 451.99969473873534 63.22930995326509 90.52829211394969
    vertex 451.35091078305294 61.72930995326509 90.2587689971217
    vertex 451.35091078305294 63.22930995326509 90.2587689971217
  endloop
endfacet
facet normal 0.3836406134017153 0.0 -0.9234824739802894
  outer loop
    vertex 451.35091078305294 61.72930995326509 90.2587689971217
    vertex 451.99969473873534 63.22930995326509 90.52829211394969
    vertex 451.99969473873534 61.72930995326509 90.52829211394969
  endloop
endfacet
facet normal 0.6098831276336972 0.0 -0.7924913694342289
  outer loop
    vertex 452.55689868705514 63.22930995326509 90.95710345478957
    vertex 451.99969473873534 61.72930995326509 90.52829211394969
    vertex 451.99969473873534 63.22930995326509 90.52829211394969
  endloop
endfacet
facet normal 0.6098831276336972 0.0 -0.7924913694342289
  outer loop
    vertex 451.99969473873534 61.72930995326509 90.52829211394969
    vertex 452.55689868705514 63.22930995326509 90.95710345478957
    vertex 452.55689868705514 61.72930995326509 90.95710345478957
  endloop
endfacet
facet normal 0.794213072326291 0.0 -0.607639363229567
  outer loop
    vertex 452.55689868705514 63.22930995326509 90.95710345478957
    vertex 452.98452743629764 61.72930995326509 91.5160342339705
    vertex 452.55689868705514 61.72930995326509 90.95710345478957
  endloop
endfacet
facet normal 0.794213072326291 0.0 -0.607639363229567
  outer loop
    vertex 452.98452743629764 61.72930995326509 91.5160342339705
    vertex 452.55689868705514 63.22930995326509 90.95710345478957
    vertex 452.98452743629764 63.22930995326509 91.5160342339705
  endloop
endfacet
facet normal 0.9242747807936488 0.0 -0.3817278213450684
  outer loop
    vertex 452.98452743629764 63.22930995326509 91.5160342339705
    vertex 453.2533846978425 61.72930995326509 92.16701635417215
    vertex 452.98452743629764 61.72930995326509 91.5160342339705
  endloop
endfacet
facet normal 0.9242747807936488 0.0 -0.3817278213450684
  outer loop
    vertex 453.2533846978425 61.72930995326509 92.16701635417215
    vertex 452.98452743629764 63.22930995326509 91.5160342339705
    vertex 453.2533846978425 63.22930995326509 92.16701635417215
  endloop
endfacet
facet normal 0.9914941779598737 0.0 -0.13015104714013717
  outer loop
    vertex 453.2533846978425 63.22930995326509 92.16701635417215
    vertex 453.34681024260846 61.72930995326509 92.87873466719074
    vertex 453.2533846978425 61.72930995326509 92.16701635417215
  endloop
endfacet
facet normal 0.9914941779598737 0.0 -0.13015104714013717
  outer loop
    vertex 453.34681024260846 61.72930995326509 92.87873466719074
    vertex 453.2533846978425 63.22930995326509 92.16701635417215
    vertex 453.34681024260846 63.22930995326509 92.87873466719074
  endloop
endfacet
facet normal 1.0 0.0 0.0
  outer loop
    vertex 453.34681024260846 63.22930995326509 92.87873466719074
    vertex 453.34681024260846 61.72930995326511 174.551488308397
    vertex 453.34681024260846 61.72930995326509 92.87873466719074
  endloop
endfacet
facet normal 1.0 0.0 0.0
  outer loop
    vertex 453.34681024260846 61.72930995326511 174.551488308397
    vertex 453.34681024260846 63.22930995326509 92.87873466719074
    vertex 453.34681024260846 63.22930995326511 174.551488308397
  endloop
endfacet
facet normal 0.9914941779598748 1.1502533748756365e-18 0.1301510471401291
  outer loop
    vertex 453.34681024260846 61.72930995326511 174.551488308397
    vertex 453.2533846978425 63.22930995326507 175.26320662141566
    vertex 453.2533846978425 61.72930995326507 175.26320662141566
  endloop
endfacet
facet normal 0.9914941779598748 1.1502533748756365e-18 0.1301510471401291
  outer loop
    vertex 453.2533846978425 63.22930995326507 175.26320662141566
    vertex 453.34681024260846 61.72930995326511 174.551488308397
    vertex 453.34681024260846 63.22930995326511 174.551488308397
  endloop
endfacet
facet normal 0.9242747807937719 -6.6240794458225484e-18 0.3817278213447704
  outer loop
    vertex 453.2533846978425 63.22930995326507 175.26320662141566
    vertex 452.9845274362978 61.7293099532651 175.91418874161747
    vertex 453.2533846978425 61.72930995326507 175.26320662141566
  endloop
endfacet
facet normal 0.9242747807937719 -6.6240794458225484e-18 0.3817278213447704
  outer loop
    vertex 452.9845274362978 61.7293099532651 175.91418874161747
    vertex 453.2533846978425 63.22930995326507 175.26320662141566
    vertex 452.9845274362978 63.229309953265094 175.91418874161747
  endloop
endfacet
facet normal 0.7942130723261973 -3.5179157947965604e-18 0.6076393632296896
  outer loop
    vertex 452.9845274362978 61.7293099532651 175.91418874161747
    vertex 452.55689868705497 63.22930995326509 176.4731195207987
    vertex 452.55689868705497 61.72930995326509 176.4731195207987
  endloop
endfacet
facet normal 0.7942130723261973 -3.5179157947965604e-18 0.6076393632296896
  outer loop
    vertex 452.55689868705497 63.22930995326509 176.4731195207987
    vertex 452.9845274362978 61.7293099532651 175.91418874161747
    vertex 452.9845274362978 63.229309953265094 175.91418874161747
  endloop
endfacet
facet normal 0.6098831276333981 0.0 0.7924913694344592
  outer loop
    vertex 452.55689868705497 61.72930995326509 176.4731195207987
    vertex 451.99969473873534 63.22930995326509 176.90193086163808
    vertex 451.99969473873534 61.72930995326509 176.90193086163808
  endloop
endfacet
facet normal 0.6098831276333981 0.0 0.7924913694344592
  outer loop
    vertex 451.99969473873534 63.22930995326509 176.90193086163808
    vertex 452.55689868705497 61.72930995326509 176.4731195207987
    vertex 452.55689868705497 63.22930995326509 176.4731195207987
  endloop
endfacet
facet normal 0.3836406134019248 0.0 0.9234824739802024
  outer loop
    vertex 451.99969473873534 61.72930995326509 176.90193086163808
    vertex 451.35091078305334 63.22930995326509 177.1714539784661
    vertex 451.35091078305334 61.72930995326509 177.1714539784661
  endloop
endfacet
facet normal 0.3836406134019248 0.0 0.9234824739802024
  outer loop
    vertex 451.35091078305334 63.22930995326509 177.1714539784661
    vertex 451.99969473873534 61.72930995326509 176.90193086163808
    vertex 451.99969473873534 63.22930995326509 176.90193086163808
  endloop
endfacet
facet normal 0.13090238102403093 0.0 0.9913952625679828
  outer loop
    vertex 451.35091078305334 61.72930995326509 177.1714539784661
    vertex 450.64159128614807 63.22930995326509 177.2651114877941
    vertex 450.64159128614807 61.72930995326509 177.2651114877941
  endloop
endfacet
facet normal 0.13090238102403093 0.0 0.9913952625679828
  outer loop
    vertex 450.64159128614807 63.22930995326509 177.2651114877941
    vertex 451.35091078305334 61.72930995326509 177.1714539784661
    vertex 451.35091078305334 63.22930995326509 177.1714539784661
  endloop
endfacet
facet normal 1.573590395967484e-15 -7.87821167387375e-16 1.0
  outer loop
    vertex 419.8069282426114 -5.7637991633721 177.26511148779406
    vertex 419.80692824261115 23.568530792077222 177.2651114877941
    vertex 418.3069282426113 -5.763799163372089 177.26511148779406
  endloop
endfacet
facet normal 1.573590395967484e-15 -7.87821167387375e-16 1.0
  outer loop
    vertex 418.30692824261115 23.862687083166914 177.2651114877941
    vertex 419.80692824261115 23.568530792077222 177.2651114877941
    vertex 434.36436651857133 63.22930995326511 177.2651114877941
  endloop
endfacet
facet normal 1.573590395967484e-15 -7.87821167387375e-16 1.0
  outer loop
    vertex 419.80692824261115 23.568530792077222 177.2651114877941
    vertex 418.30692824261115 23.862687083166914 177.2651114877941
    vertex 418.3069282426113 -5.763799163372089 177.26511148779406
  endloop
endfacet
facet normal 1.573590395967484e-15 -7.87821167387375e-16 1.0
  outer loop
    vertex 434.36436651857133 63.22930995326511 177.2651114877941
    vertex 419.80692824261115 23.568530792077222 177.2651114877941
    vertex 419.88246501359214 23.753717714482057 177.2651114877941
  endloop
endfacet
facet normal 1.573590395967484e-15 -7.87821167387375e-16 1.0
  outer loop
    vertex 434.36436651857133 63.22930995326511 177.2651114877941
    vertex 419.88246501359214 23.753717714482057 177.2651114877941
    vertex 435.3725092162536 61.72930995326509 177.26511148779406
  endloop
endfacet
facet normal 1.573590395967484e-15 -7.87821167387375e-16 1.0
  outer loop
    vertex 434.36436651857133 63.22930995326511 177.2651114877941
    vertex 435.3725092162536 61.72930995326509 177.26511148779406
    vertex 450.64159128614807 63.22930995326509 177.2651114877941
  endloop
endfacet
facet normal 1.573590395967484e-15 -7.87821167387375e-16 1.0
  outer loop
    vertex 450.64159128614807 63.22930995326509 177.2651114877941
    vertex 435.3725092162536 61.72930995326509 177.26511148779406
    vertex 450.64159128614807 61.72930995326509 177.2651114877941
  endloop
endfacet
facet normal -0.9259346120242028 0.3776838549045874 -1.2691325204621105e-15
  outer loop
    vertex 418.30692824261115 23.862687083166914 177.2651114877941
    vertex 434.36436651857133 63.22930995326509 90.16511148779406
    vertex 418.30692824261115 23.862687083166904 90.16511148779405
  endloop
endfacet
facet normal -0.9259346120242028 0.3776838549045874 -1.2691325204621105e-15
  outer loop
    vertex 434.36436651857133 63.22930995326509 90.16511148779406
    vertex 418.30692824261115 23.862687083166914 177.2651114877941
    vertex 434.36436651857133 63.22930995326511 177.2651114877941
  endloop
endfacet
facet normal -1.0 4.715162598080106e-15 6.309083721144533e-16
  outer loop
    vertex 418.306928242611 -8.408095265980338 175.2626515904475
    vertex 418.306928242611 -8.50255538473488 92.87888559942867
    vertex 418.306928242611 -8.50255538473488 174.55133737615938
  endloop
endfacet
facet normal -1.0 4.715162598080106e-15 6.309083721144533e-16
  outer loop
    vertex 418.306928242611 -8.50255538473488 92.87888559942867
    vertex 418.306928242611 -8.408095265980338 175.2626515904475
    vertex 418.306928242611 -8.408095265980338 92.16757138514065
  endloop
endfacet
facet normal -1.0 4.715162598080106e-15 6.309083721144533e-16
  outer loop
    vertex 418.306928242611 -8.408095265980338 92.16757138514065
    vertex 418.306928242611 -8.408095265980338 175.2626515904475
    vertex 418.306928242611 -8.136232340919028 175.91333206285654
  endloop
endfacet
facet normal -1.0 4.715162598080106e-15 6.309083721144533e-16
  outer loop
    vertex 418.306928242611 -8.408095265980338 92.16757138514065
    vertex 418.306928242611 -8.136232340919028 175.91333206285654
    vertex 418.306928242611 -8.136232340919015 91.51689091273157
  endloop
endfacet
facet normal -1.0 4.715162598080106e-15 6.309083721144533e-16
  outer loop
    vertex 418.306928242611 -8.136232340919015 91.51689091273157
    vertex 418.306928242611 -8.136232340919028 175.91333206285654
    vertex 418.30692824261115 -7.703576014989593 176.4723228978585
  endloop
endfacet
facet normal -1.0 4.715162598080106e-15 6.309083721144533e-16
  outer loop
    vertex 418.306928242611 -8.136232340919015 91.51689091273157
    vertex 418.30692824261115 -7.703576014989593 176.4723228978585
    vertex 418.306928242611 -7.703576014989626 90.95790007772966
  endloop
endfacet
facet normal -1.0 4.715162598080106e-15 6.309083721144533e-16
  outer loop
    vertex 418.306928242611 -7.703576014989626 90.95790007772966
    vertex 418.30692824261115 -7.703576014989593 176.4723228978585
    vertex 418.306928242611 -7.1394518225716 90.52876175376892
  endloop
endfacet
facet normal -1.0 4.715162598080106e-15 6.309083721144533e-16
  outer loop
    vertex 418.306928242611 -7.1394518225716 90.52876175376892
    vertex 418.30692824261115 -7.703576014989593 176.4723228978585
    vertex 418.306928242611 -7.139451822571578 176.90146122181912
  endloop
endfacet
facet normal -1.0 4.715162598080106e-15 6.309083721144533e-16
  outer loop
    vertex 418.306928242611 -7.1394518225716 90.52876175376892
    vertex 418.306928242611 -7.139451822571578 176.90146122181912
    vertex 418.306928242611 -6.482240142456305 90.25888113914824
  endloop
endfacet
facet normal -1.0 4.715162598080106e-15 6.309083721144533e-16
  outer loop
    vertex 418.306928242611 -6.482240142456305 90.25888113914824
    vertex 418.306928242611 -7.139451822571578 176.90146122181912
    vertex 418.306928242611 -6.482240142456272 177.17134183643984
  endloop
endfacet
facet normal -1.0 4.715162598080106e-15 6.309083721144533e-16
  outer loop
    vertex 418.306928242611 -6.482240142456305 90.25888113914824
    vertex 418.306928242611 -6.482240142456272 177.17134183643984
    vertex 418.306928242611 -5.763799163372089 90.16511148779405
  endloop
endfacet
facet normal -1.0 4.715162598080106e-15 6.309083721144533e-16
  outer loop
    vertex 418.306928242611 -5.763799163372089 90.16511148779405
    vertex 418.306928242611 -6.482240142456272 177.17134183643984
    vertex 418.3069282426113 -5.763799163372089 177.26511148779406
  endloop
endfacet
facet normal -1.0 4.715162598080106e-15 6.309083721144533e-16
  outer loop
    vertex 418.306928242611 -5.763799163372089 90.16511148779405
    vertex 418.3069282426113 -5.763799163372089 177.26511148779406
    vertex 418.30692824261115 23.862687083166914 177.2651114877941
  endloop
endfacet
facet normal -1.0 4.715162598080106e-15 6.309083721144533e-16
  outer loop
    vertex 418.306928242611 -5.763799163372089 90.16511148779405
    vertex 418.30692824261115 23.862687083166914 177.2651114877941
    vertex 418.30692824261115 21.949567607407428 90.16511148779405
  endloop
endfacet
facet normal -1.0 4.715162598080106e-15 6.309083721144533e-16
  outer loop
    vertex 418.30692824261115 21.949567607407428 90.16511148779405
    vertex 418.30692824261115 23.862687083166914 177.2651114877941
    vertex 418.30692824261115 23.862687083166904 90.16511148779405
  endloop
endfacet
endsolid GHU
