solid GHU
facet normal -0.925934612024195 -0.37768385490460604 -1.6644776880529065e-16
  outer loop
    vertex 24.891904471542706 23.75371771448205 177.2651114877941
    vertex 24.96744124252368 23.568530792077212 90.16511148779405
    vertex 24.96744124252368 23.568530792077212 177.2651114877941
  endloop
endfacet
facet normal -0.925934612024195 -0.37768385490460604 -1.6644776880529065e-16
  outer loop
    vertex 24.96744124252368 23.568530792077212 90.16511148779405
    vertex 24.891904471542706 23.75371771448205 177.2651114877941
    vertex 9.401860268881242 61.72930995326507 90.16511148779406
  endloop
endfacet
facet normal -0.925934612024195 -0.37768385490460604 -1.6644776880529065e-16
  outer loop
    vertex 9.401860268881242 61.72930995326507 90.16511148779406
    vertex 24.891904471542706 23.75371771448205 177.2651114877941
    vertex 9.401860268881242 61.72930995326507 177.26511148779406
  endloop
endfacet
facet normal -1.0 -4.438058899098156e-15 -7.648544897445119e-16
  outer loop
    vertex 24.96744124252386 -8.40809526598036 175.2626515904475
    vertex 24.96744124252386 -8.502555384734903 92.87888559942867
    vertex 24.96744124252386 -8.502555384734903 174.55133737615938
  endloop
endfacet
facet normal -1.0 -4.438058899098156e-15 -7.648544897445119e-16
  outer loop
    vertex 24.96744124252386 -8.502555384734903 92.87888559942867
    vertex 24.96744124252386 -8.40809526598036 175.2626515904475
    vertex 24.96744124252386 -8.40809526598036 92.16757138514065
  endloop
endfacet
facet normal -1.0 -4.438058899098156e-15 -7.648544897445119e-16
  outer loop
    vertex 24.96744124252386 -8.40809526598036 92.16757138514065
    vertex 24.96744124252386 -8.40809526598036 175.2626515904475
    vertex 24.96744124252386 -8.13623234091905 175.91333206285654
  endloop
endfacet
facet normal -1.0 -4.438058899098156e-15 -7.648544897445119e-16
  outer loop
    vertex 24.96744124252386 -8.40809526598036 92.16757138514065
    vertex 24.96744124252386 -8.13623234091905 175.91333206285654
    vertex 24.96744124252386 -8.136232340919038 91.51689091273157
  endloop
endfacet
facet normal -1.0 -4.438058899098156e-15 -7.648544897445119e-16
  outer loop
    vertex 24.96744124252386 -8.136232340919038 91.51689091273157
    vertex 24.96744124252386 -8.13623234091905 175.91333206285654
    vertex 24.96744124252368 -7.703576014989615 176.4723228978585
  endloop
endfacet
facet normal -1.0 -4.438058899098156e-15 -7.648544897445119e-16
  outer loop
    vertex 24.96744124252386 -8.136232340919038 91.51689091273157
    vertex 24.96744124252368 -7.703576014989615 176.4723228978585
    vertex 24.96744124252386 -7.703576014989649 90.95790007772966
  endloop
endfacet
facet normal -1.0 -4.438058899098156e-15 -7.648544897445119e-16
  outer loop
    vertex 24.96744124252386 -7.703576014989649 90.95790007772966
    vertex 24.96744124252368 -7.703576014989615 176.4723228978585
    vertex 24.96744124252386 -7.1394518225716235 90.52876175376892
  endloop
endfacet
facet normal -1.0 -4.438058899098156e-15 -7.648544897445119e-16
  outer loop
    vertex 24.96744124252386 -7.1394518225716235 90.52876175376892
    vertex 24.96744124252368 -7.703576014989615 176.4723228978585
    vertex 24.96744124252386 -7.1394518225716 176.90146122181912
  endloop
endfacet
facet normal -1.0 -4.438058899098156e-15 -7.648544897445119e-16
  outer loop
    vertex 24.96744124252386 -7.1394518225716235 90.52876175376892
    vertex 24.96744124252386 -7.1394518225716 176.90146122181912
    vertex 24.96744124252386 -6.482240142456328 90.25888113914824
  endloop
endfacet
facet normal -1.0 -4.438058899098156e-15 -7.648544897445119e-16
  outer loop
    vertex 24.96744124252386 -6.482240142456328 90.25888113914824
    vertex 24.96744124252386 -7.1394518225716 176.90146122181912
    vertex 24.96744124252386 -6.482240142456294 177.17134183643984
  endloop
endfacet
facet normal -1.0 -4.438058899098156e-15 -7.648544897445119e-16
  outer loop
    vertex 24.96744124252386 -6.482240142456328 90.25888113914824
    vertex 24.96744124252386 -6.482240142456294 177.17134183643984
    vertex 24.96744124252386 -5.763799163372112 90.16511148779405
  endloop
endfacet
facet normal -1.0 -4.438058899098156e-15 -7.648544897445119e-16
  outer loop
    vertex 24.96744124252386 -5.763799163372112 90.16511148779405
    vertex 24.96744124252386 -6.482240142456294 177.17134183643984
    vertex 24.9674412425235 -5.763799163372112 177.26511148779406
  endloop
endfacet
facet normal -1.0 -4.438058899098156e-15 -7.648544897445119e-16
  outer loop
    vertex 24.96744124252386 -5.763799163372112 90.16511148779405
    vertex 24.9674412425235 -5.763799163372112 177.26511148779406
    vertex 24.96744124252368 23.568530792077212 177.2651114877941
  endloop
endfacet
facet normal -1.0 -4.438058899098156e-15 -7.648544897445119e-16
  outer loop
    vertex 24.96744124252386 -5.763799163372112 90.16511148779405
    vertex 24.96744124252368 23.568530792077212 177.2651114877941
    vertex 24.96744124252368 23.568530792077212 90.16511148779405
  endloop
endfacet
facet normal 1.332797946214946e-15 -0.12942055368592775 -0.9915897943623805
  outer loop
    vertex 26.46744124252388 -5.7637991633721 90.16511148779405
    vertex 24.96744124252386 -6.482240142456328 90.25888113914824
    vertex 24.96744124252386 -5.763799163372112 90.16511148779405
  endloop
endfacet
facet normal 1.332797946214946e-15 -0.12942055368592775 -0.9915897943623805
  outer loop
    vertex 24.96744124252386 -6.482240142456328 90.25888113914824
    vertex 26.46744124252388 -5.7637991633721 90.16511148779405
    vertex 26.46744124252388 -6.482240142456316 90.25888113914824
  endloop
endfacet
facet normal 2.3933812704362882e-15 -0.379863920806573 -0.9250423783100198
  outer loop
    vertex 26.46744124252388 -6.482240142456316 90.25888113914824
    vertex 24.96744124252386 -7.1394518225716235 90.52876175376892
    vertex 24.96744124252386 -6.482240142456328 90.25888113914824
  endloop
endfacet
facet normal 2.3933812704362882e-15 -0.379863920806573 -0.9250423783100198
  outer loop
    vertex 24.96744124252386 -7.1394518225716235 90.52876175376892
    vertex 26.46744124252388 -6.482240142456316 90.25888113914824
    vertex 26.46744124252388 -7.139451822571612 90.52876175376892
  endloop
endfacet
facet normal 3.2957362849879912e-15 -0.6054444441519091 -0.7958875706062922
  outer loop
    vertex 26.46744124252388 -7.139451822571612 90.52876175376892
    vertex 24.96744124252386 -7.703576014989649 90.95790007772966
    vertex 24.96744124252386 -7.1394518225716235 90.52876175376892
  endloop
endfacet
facet normal 3.2957362849879912e-15 -0.6054444441519091 -0.7958875706062922
  outer loop
    vertex 24.96744124252386 -7.703576014989649 90.95790007772966
    vertex 26.46744124252388 -7.139451822571612 90.52876175376892
    vertex 26.46744124252388 -7.703576014989638 90.95790007772966
  endloop
endfacet
facet normal 3.977763485210877e-15 -0.7907995577866661 -0.6120752073106812
  outer loop
    vertex 26.46744124252388 -8.136232340919028 91.51689091273157
    vertex 24.96744124252386 -7.703576014989649 90.95790007772966
    vertex 26.46744124252388 -7.703576014989638 90.95790007772966
  endloop
endfacet
facet normal 3.977763485210877e-15 -0.7907995577866661 -0.6120752073106812
  outer loop
    vertex 24.96744124252386 -7.703576014989649 90.95790007772966
    vertex 26.46744124252388 -8.136232340919028 91.51689091273157
    vertex 24.96744124252386 -8.136232340919038 91.51689091273157
  endloop
endfacet
facet normal 4.3898649832264614e-15 -0.9227008770399908 -0.3855166552947252
  outer loop
    vertex 26.46744124252388 -8.408095265980348 92.16757138514065
    vertex 24.96744124252386 -8.136232340919038 91.51689091273157
    vertex 26.46744124252388 -8.136232340919028 91.51689091273157
  endloop
endfacet
facet normal 4.3898649832264614e-15 -0.9227008770399908 -0.3855166552947252
  outer loop
    vertex 24.96744124252386 -8.136232340919038 91.51689091273157
    vertex 26.46744124252388 -8.408095265980348 92.16757138514065
    vertex 24.96744124252386 -8.40809526598036 92.16757138514065
  endloop
endfacet
facet normal 4.500122698572391e-15 -0.9912974635871118 -0.13164094608349916
  outer loop
    vertex 26.46744124252388 -8.502555384734892 92.87888559942867
    vertex 24.96744124252386 -8.40809526598036 92.16757138514065
    vertex 26.46744124252388 -8.408095265980348 92.16757138514065
  endloop
endfacet
facet normal 4.500122698572391e-15 -0.9912974635871118 -0.13164094608349916
  outer loop
    vertex 24.96744124252386 -8.40809526598036 92.16757138514065
    vertex 26.46744124252388 -8.502555384734892 92.87888559942867
    vertex 24.96744124252386 -8.502555384734903 92.87888559942867
  endloop
endfacet
facet normal 4.4380588990981564e-15 -1.0 0.0
  outer loop
    vertex 26.46744124252388 -8.502555384734892 174.55133737615938
    vertex 24.96744124252386 -8.502555384734903 92.87888559942867
    vertex 26.46744124252388 -8.502555384734892 92.87888559942867
  endloop
endfacet
facet normal 4.4380588990981564e-15 -1.0 0.0
  outer loop
    vertex 24.96744124252386 -8.502555384734903 92.87888559942867
    vertex 26.46744124252388 -8.502555384734892 174.55133737615938
    vertex 24.96744124252386 -8.502555384734903 174.55133737615938
  endloop
endfacet
facet normal 4.2987503612800544e-15 -0.991297463587114 0.13164094608348276
  outer loop
    vertex 26.46744124252388 -8.408095265980348 175.2626515904475
    vertex 24.96744124252386 -8.502555384734903 174.55133737615938
    vertex 26.46744124252388 -8.502555384734892 174.55133737615938
  endloop
endfacet
facet normal 4.2987503612800544e-15 -0.991297463587114 0.13164094608348276
  outer loop
    vertex 24.96744124252386 -8.502555384734903 174.55133737615938
    vertex 26.46744124252388 -8.408095265980348 175.2626515904475
    vertex 24.96744124252386 -8.40809526598036 175.2626515904475
  endloop
endfacet
facet normal 3.8001366938795375e-15 -0.9227008770399894 0.38551665529472867
  outer loop
    vertex 26.46744124252388 -8.136232340919038 175.91333206285654
    vertex 24.96744124252386 -8.40809526598036 175.2626515904475
    vertex 26.46744124252388 -8.408095265980348 175.2626515904475
  endloop
endfacet
facet normal 3.8001366938795375e-15 -0.9227008770399894 0.38551665529472867
  outer loop
    vertex 24.96744124252386 -8.40809526598036 175.2626515904475
    vertex 26.46744124252388 -8.136232340919038 175.91333206285654
    vertex 24.96744124252386 -8.13623234091905 175.91333206285654
  endloop
endfacet
facet normal 3.0414665444650848e-15 -0.7907995577866592 0.6120752073106902
  outer loop
    vertex 26.467441242523698 -7.703576014989604 176.4723228978585
    vertex 24.96744124252386 -8.13623234091905 175.91333206285654
    vertex 26.46744124252388 -8.136232340919038 175.91333206285654
  endloop
endfacet
facet normal 3.0414665444650848e-15 -0.7907995577866592 0.6120752073106902
  outer loop
    vertex 24.96744124252386 -8.13623234091905 175.91333206285654
    vertex 26.467441242523698 -7.703576014989604 176.4723228978585
    vertex 24.96744124252368 -7.703576014989615 176.4723228978585
  endloop
endfacet
facet normal 2.0782599215673747e-15 -0.605444444151816 0.7958875706063631
  outer loop
    vertex 26.467441242523698 -7.703576014989604 176.4723228978585
    vertex 24.96744124252386 -7.1394518225716 176.90146122181912
    vertex 24.96744124252368 -7.703576014989615 176.4723228978585
  endloop
endfacet
facet normal 2.0782599215673747e-15 -0.605444444151816 0.7958875706063631
  outer loop
    vertex 24.96744124252386 -7.1394518225716 176.90146122181912
    vertex 26.467441242523698 -7.703576014989604 176.4723228978585
    vertex 26.46744124252388 -7.13945182257159 176.90146122181912
  endloop
endfacet
facet normal 9.783356379277358e-16 -0.3798639208066082 0.9250423783100054
  outer loop
    vertex 26.46744124252388 -7.13945182257159 176.90146122181912
    vertex 24.96744124252386 -6.482240142456294 177.17134183643984
    vertex 24.96744124252386 -7.1394518225716 176.90146122181912
  endloop
endfacet
facet normal 9.783356379277358e-16 -0.3798639208066082 0.9250423783100054
  outer loop
    vertex 24.96744124252386 -6.482240142456294 177.17134183643984
    vertex 26.46744124252388 -7.13945182257159 176.90146122181912
    vertex 26.46744124252388 -6.482240142456282 177.17134183643984
  endloop
endfacet
facet normal -1.8404586619069524e-16 -0.12942055368596436 0.9915897943623756
  outer loop
    vertex 24.96744124252386 -6.482240142456294 177.17134183643984
    vertex 26.46744124252352 -5.7637991633721 177.26511148779406
    vertex 24.9674412425235 -5.763799163372112 177.26511148779406
  endloop
endfacet
facet normal -1.8404586619069524e-16 -0.12942055368596436 0.9915897943623756
  outer loop
    vertex 26.46744124252352 -5.7637991633721 177.26511148779406
    vertex 24.96744124252386 -6.482240142456294 177.17134183643984
    vertex 26.46744124252388 -6.482240142456282 177.17134183643984
  endloop
endfacet
facet normal -2.790801208761387e-16 -1.0 3.1911503192270377e-17
  outer loop
    vertex 9.401860268881242 61.72930995326507 90.16511148779406
    vertex -36.57654129791813 61.72930995326509 90.25876899712168
    vertex -35.86722180101324 61.72930995326509 90.16511148779405
  endloop
endfacet
facet normal -2.790801208761387e-16 -1.0 3.1911503192270377e-17
  outer loop
    vertex -36.57654129791813 61.72930995326509 90.25876899712168
    vertex 9.401860268881242 61.72930995326507 90.16511148779406
    vertex 9.401860268881242 61.72930995326507 177.26511148779406
  endloop
endfacet
facet normal -2.790801208761387e-16 -1.0 3.1911503192270377e-17
  outer loop
    vertex -36.57654129791813 61.72930995326509 90.25876899712168
    vertex 9.401860268881242 61.72930995326507 177.26511148779406
    vertex -37.22532525360054 61.72930995326509 90.52829211394968
  endloop
endfacet
facet normal -2.790801208761387e-16 -1.0 3.1911503192270377e-17
  outer loop
    vertex -37.22532525360054 61.72930995326509 90.52829211394968
    vertex 9.401860268881242 61.72930995326507 177.26511148779406
    vertex -37.78252920192034 61.72930995326509 90.95710345478956
  endloop
endfacet
facet normal -2.790801208761387e-16 -1.0 3.1911503192270377e-17
  outer loop
    vertex -37.78252920192034 61.72930995326509 90.95710345478956
    vertex 9.401860268881242 61.72930995326507 177.26511148779406
    vertex -38.2101579511628 61.72930995326509 91.51603423397047
  endloop
endfacet
facet normal -2.790801208761387e-16 -1.0 3.1911503192270377e-17
  outer loop
    vertex -38.2101579511628 61.72930995326509 91.51603423397047
    vertex 9.401860268881242 61.72930995326507 177.26511148779406
    vertex -38.47901521270767 61.72930995326509 92.16701635417212
  endloop
endfacet
facet normal -2.790801208761387e-16 -1.0 3.1911503192270377e-17
  outer loop
    vertex -38.47901521270767 61.72930995326509 92.16701635417212
    vertex 9.401860268881242 61.72930995326507 177.26511148779406
    vertex -38.572440757473636 61.72930995326509 92.87873466719071
  endloop
endfacet
facet normal -2.790801208761387e-16 -1.0 3.1911503192270377e-17
  outer loop
    vertex -38.572440757473636 61.72930995326509 92.87873466719071
    vertex 9.401860268881242 61.72930995326507 177.26511148779406
    vertex -38.572440757473636 61.72930995326511 174.551488308397
  endloop
endfacet
facet normal -2.790801208761387e-16 -1.0 3.1911503192270377e-17
  outer loop
    vertex -38.572440757473636 61.72930995326511 174.551488308397
    vertex 9.401860268881242 61.72930995326507 177.26511148779406
    vertex -38.47901521270767 61.72930995326507 175.26320662141563
  endloop
endfacet
facet normal -2.790801208761387e-16 -1.0 3.1911503192270377e-17
  outer loop
    vertex -38.47901521270767 61.72930995326507 175.26320662141563
    vertex 9.401860268881242 61.72930995326507 177.26511148779406
    vertex -38.210157951162984 61.7293099532651 175.91418874161744
  endloop
endfacet
facet normal -2.790801208761387e-16 -1.0 3.1911503192270377e-17
  outer loop
    vertex -38.210157951162984 61.7293099532651 175.91418874161744
    vertex 9.401860268881242 61.72930995326507 177.26511148779406
    vertex -37.78252920192016 61.72930995326509 176.47311952079866
  endloop
endfacet
facet normal -2.790801208761387e-16 -1.0 3.1911503192270377e-17
  outer loop
    vertex -37.78252920192016 61.72930995326509 176.47311952079866
    vertex 9.401860268881242 61.72930995326507 177.26511148779406
    vertex -37.22532525360054 61.72930995326509 176.90193086163808
  endloop
endfacet
facet normal -2.790801208761387e-16 -1.0 3.1911503192270377e-17
  outer loop
    vertex -37.22532525360054 61.72930995326509 176.90193086163808
    vertex 9.401860268881242 61.72930995326507 177.26511148779406
    vertex -36.576541297918496 61.72930995326509 177.17145397846608
  endloop
endfacet
facet normal -2.790801208761387e-16 -1.0 3.1911503192270377e-17
  outer loop
    vertex -36.576541297918496 61.72930995326509 177.17145397846608
    vertex 9.401860268881242 61.72930995326507 177.26511148779406
    vertex -35.86722180101324 61.72930995326509 177.26511148779406
  endloop
endfacet
facet normal 1.9049584053667285e-16 1.0 -5.2398755622455456e-17
  outer loop
    vertex -36.57654129791813 63.22930995326509 90.25876899712168
    vertex 7.511437029094797 63.22930995326507 90.16511148779406
    vertex -35.86722180101324 63.22930995326509 90.16511148779405
  endloop
endfacet
facet normal 1.9049584053667285e-16 1.0 -5.2398755622455456e-17
  outer loop
    vertex 7.511437029094797 63.22930995326507 90.16511148779406
    vertex -36.57654129791813 63.22930995326509 90.25876899712168
    vertex 10.41000296656352 63.22930995326507 90.16511148779406
  endloop
endfacet
facet normal 1.9049584053667285e-16 1.0 -5.2398755622455456e-17
  outer loop
    vertex 10.41000296656352 63.22930995326507 90.16511148779406
    vertex -36.57654129791813 63.22930995326509 90.25876899712168
    vertex 10.41000296656352 63.229309953265094 177.2651114877941
  endloop
endfacet
facet normal 1.9049584053667285e-16 1.0 -5.2398755622455456e-17
  outer loop
    vertex 10.41000296656352 63.229309953265094 177.2651114877941
    vertex -36.57654129791813 63.22930995326509 90.25876899712168
    vertex -37.22532525360054 63.22930995326509 90.52829211394968
  endloop
endfacet
facet normal 1.9049584053667285e-16 1.0 -5.2398755622455456e-17
  outer loop
    vertex 10.41000296656352 63.229309953265094 177.2651114877941
    vertex -37.22532525360054 63.22930995326509 90.52829211394968
    vertex -37.78252920192034 63.22930995326509 90.95710345478956
  endloop
endfacet
facet normal 1.9049584053667285e-16 1.0 -5.2398755622455456e-17
  outer loop
    vertex 10.41000296656352 63.229309953265094 177.2651114877941
    vertex -37.78252920192034 63.22930995326509 90.95710345478956
    vertex -38.2101579511628 63.22930995326509 91.51603423397047
  endloop
endfacet
facet normal 1.9049584053667285e-16 1.0 -5.2398755622455456e-17
  outer loop
    vertex 10.41000296656352 63.229309953265094 177.2651114877941
    vertex -38.2101579511628 63.22930995326509 91.51603423397047
    vertex -38.47901521270767 63.22930995326509 92.16701635417212
  endloop
endfacet
facet normal 1.9049584053667285e-16 1.0 -5.2398755622455456e-17
  outer loop
    vertex 10.41000296656352 63.229309953265094 177.2651114877941
    vertex -38.47901521270767 63.22930995326509 92.16701635417212
    vertex -38.572440757473636 63.22930995326509 92.87873466719071
  endloop
endfacet
facet normal 1.9049584053667285e-16 1.0 -5.2398755622455456e-17
  outer loop
    vertex 10.41000296656352 63.229309953265094 177.2651114877941
    vertex -38.572440757473636 63.22930995326509 92.87873466719071
    vertex -38.572440757473636 63.22930995326511 174.551488308397
  endloop
endfacet
facet normal 1.9049584053667285e-16 1.0 -5.2398755622455456e-17
  outer loop
    vertex 10.41000296656352 63.229309953265094 177.2651114877941
    vertex -38.572440757473636 63.22930995326511 174.551488308397
    vertex -38.47901521270767 63.22930995326507 175.26320662141563
  endloop
endfacet
facet normal 1.9049584053667285e-16 1.0 -5.2398755622455456e-17
  outer loop
    vertex 10.41000296656352 63.229309953265094 177.2651114877941
    vertex -38.47901521270767 63.22930995326507 175.26320662141563
    vertex -38.210157951162984 63.229309953265094 175.91418874161744
  endloop
endfacet
facet normal 1.9049584053667285e-16 1.0 -5.2398755622455456e-17
  outer loop
    vertex 10.41000296656352 63.229309953265094 177.2651114877941
    vertex -38.210157951162984 63.229309953265094 175.91418874161744
    vertex -37.78252920192016 63.22930995326509 176.47311952079866
  endloop
endfacet
facet normal 1.9049584053667285e-16 1.0 -5.2398755622455456e-17
  outer loop
    vertex 10.41000296656352 63.229309953265094 177.2651114877941
    vertex -37.78252920192016 63.22930995326509 176.47311952079866
    vertex -37.22532525360054 63.22930995326509 176.90193086163808
  endloop
endfacet
facet normal 1.9049584053667285e-16 1.0 -5.2398755622455456e-17
  outer loop
    vertex 10.41000296656352 63.229309953265094 177.2651114877941
    vertex -37.22532525360054 63.22930995326509 176.90193086163808
    vertex -36.576541297918496 63.22930995326509 177.17145397846608
  endloop
endfacet
facet normal 1.9049584053667285e-16 1.0 -5.2398755622455456e-17
  outer loop
    vertex 10.41000296656352 63.229309953265094 177.2651114877941
    vertex -36.576541297918496 63.22930995326509 177.17145397846608
    vertex -35.86722180101324 63.22930995326509 177.26511148779406
  endloop
endfacet
facet normal 1.9332866181947923e-16 2.3379277070326155e-16 -1.0
  outer loop
    vertex 7.511437029094797 63.22930995326507 90.16511148779406
    vertex -35.86722180101324 61.72930995326509 90.16511148779405
    vertex -35.86722180101324 63.22930995326509 90.16511148779405
  endloop
endfacet
facet normal 1.9332866181947923e-16 2.3379277070326155e-16 -1.0
  outer loop
    vertex -35.86722180101324 61.72930995326509 90.16511148779405
    vertex 7.511437029094797 63.22930995326507 90.16511148779406
    vertex 9.401860268881242 61.72930995326507 90.16511148779406
  endloop
endfacet
facet normal 1.9332866181947923e-16 2.3379277070326155e-16 -1.0
  outer loop
    vertex 9.401860268881242 61.72930995326507 90.16511148779406
    vertex 7.511437029094797 63.22930995326507 90.16511148779406
    vertex 10.41000296656352 63.22930995326507 90.16511148779406
  endloop
endfacet
facet normal 1.9332866181947923e-16 2.3379277070326155e-16 -1.0
  outer loop
    vertex 9.401860268881242 61.72930995326507 90.16511148779406
    vertex 10.41000296656352 63.22930995326507 90.16511148779406
    vertex 24.96744124252368 23.568530792077212 90.16511148779405
  endloop
endfacet
facet normal 1.9332866181947923e-16 2.3379277070326155e-16 -1.0
  outer loop
    vertex 24.96744124252368 23.568530792077212 90.16511148779405
    vertex 10.41000296656352 63.22930995326507 90.16511148779406
    vertex 26.467441242523698 23.862687083166893 90.16511148779405
  endloop
endfacet
facet normal 1.9332866181947923e-16 2.3379277070326155e-16 -1.0
  outer loop
    vertex 24.96744124252368 23.568530792077212 90.16511148779405
    vertex 26.467441242523698 23.862687083166893 90.16511148779405
    vertex 24.96744124252386 -5.763799163372112 90.16511148779405
  endloop
endfacet
facet normal 1.9332866181947923e-16 2.3379277070326155e-16 -1.0
  outer loop
    vertex 24.96744124252386 -5.763799163372112 90.16511148779405
    vertex 26.467441242523698 23.862687083166893 90.16511148779405
    vertex 26.467441242523698 21.94956760740742 90.16511148779405
  endloop
endfacet
facet normal 1.9332866181947923e-16 2.3379277070326155e-16 -1.0
  outer loop
    vertex 24.96744124252386 -5.763799163372112 90.16511148779405
    vertex 26.467441242523698 21.94956760740742 90.16511148779405
    vertex 26.46744124252388 -5.7637991633721 90.16511148779405
  endloop
endfacet
facet normal -0.13090238102363153 2.5798225016214762e-17 -0.9913952625680356
  outer loop
    vertex -35.86722180101324 63.22930995326509 90.16511148779405
    vertex -36.57654129791813 61.72930995326509 90.25876899712168
    vertex -36.57654129791813 63.22930995326509 90.25876899712168
  endloop
endfacet
facet normal -0.13090238102363153 2.5798225016214762e-17 -0.9913952625680356
  outer loop
    vertex -36.57654129791813 61.72930995326509 90.25876899712168
    vertex -35.86722180101324 63.22930995326509 90.16511148779405
    vertex -35.86722180101324 61.72930995326509 90.16511148779405
  endloop
endfacet
facet normal -0.3836406134017153 1.3156358359740655e-16 -0.9234824739802893
  outer loop
    vertex -36.57654129791813 63.22930995326509 90.25876899712168
    vertex -37.22532525360054 61.72930995326509 90.52829211394968
    vertex -37.22532525360054 63.22930995326509 90.52829211394968
  endloop
endfacet
facet normal -0.3836406134017153 1.3156358359740655e-16 -0.9234824739802893
  outer loop
    vertex -37.22532525360054 61.72930995326509 90.52829211394968
    vertex -36.57654129791813 63.22930995326509 90.25876899712168
    vertex -36.57654129791813 61.72930995326509 90.25876899712168
  endloop
endfacet
facet normal -0.6098831276336972 2.282228576984273e-16 -0.7924913694342288
  outer loop
    vertex -37.22532525360054 63.22930995326509 90.52829211394968
    vertex -37.78252920192034 61.72930995326509 90.95710345478956
    vertex -37.78252920192034 63.22930995326509 90.95710345478956
  endloop
endfacet
facet normal -0.6098831276336972 2.282228576984273e-16 -0.7924913694342288
  outer loop
    vertex -37.78252920192034 61.72930995326509 90.95710345478956
    vertex -37.22532525360054 63.22930995326509 90.52829211394968
    vertex -37.22532525360054 61.72930995326509 90.52829211394968
  endloop
endfacet
facet normal -0.794213072326291 3.0918116776200133e-16 -0.607639363229567
  outer loop
    vertex -38.2101579511628 63.22930995326509 91.51603423397047
    vertex -37.78252920192034 61.72930995326509 90.95710345478956
    vertex -38.2101579511628 61.72930995326509 91.51603423397047
  endloop
endfacet
facet normal -0.794213072326291 3.0918116776200133e-16 -0.607639363229567
  outer loop
    vertex -37.78252920192034 61.72930995326509 90.95710345478956
    vertex -38.2101579511628 63.22930995326509 91.51603423397047
    vertex -37.78252920192034 63.22930995326509 90.95710345478956
  endloop
endfacet
facet normal -0.9242747807936489 3.6900027007353217e-16 -0.38172782134506844
  outer loop
    vertex -38.47901521270767 63.22930995326509 92.16701635417212
    vertex -38.2101579511628 61.72930995326509 91.51603423397047
    vertex -38.47901521270767 61.72930995326509 92.16701635417212
  endloop
endfacet
facet normal -0.9242747807936489 3.6900027007353217e-16 -0.38172782134506844
  outer loop
    vertex -38.2101579511628 61.72930995326509 91.51603423397047
    vertex -38.47901521270767 63.22930995326509 92.16701635417212
    vertex -38.2101579511628 63.22930995326509 91.51603423397047
  endloop
endfacet
facet normal -0.9914941779598738 4.0372254384110275e-16 -0.13015104714013723
  outer loop
    vertex -38.572440757473636 63.22930995326509 92.87873466719071
    vertex -38.47901521270767 61.72930995326509 92.16701635417212
    vertex -38.572440757473636 61.72930995326509 92.87873466719071
  endloop
endfacet
facet normal -0.9914941779598738 4.0372254384110275e-16 -0.13015104714013723
  outer loop
    vertex -38.47901521270767 61.72930995326509 92.16701635417212
    vertex -38.572440757473636 63.22930995326509 92.87873466719071
    vertex -38.47901521270767 63.22930995326509 92.16701635417212
  endloop
endfacet
facet normal -1.0 4.108918661438101e-16 -1.1349697310976944e-31
  outer loop
    vertex -38.572440757473636 61.72930995326511 174.551488308397
    vertex -38.572440757473636 63.22930995326509 92.87873466719071
    vertex -38.572440757473636 61.72930995326509 92.87873466719071
  endloop
endfacet
facet normal -1.0 4.108918661438101e-16 -1.1349697310976944e-31
  outer loop
    vertex -38.572440757473636 63.22930995326509 92.87873466719071
    vertex -38.572440757473636 61.72930995326511 174.551488308397
    vertex -38.572440757473636 63.22930995326511 174.551488308397
  endloop
endfacet
facet normal -0.9914941779598749 4.110712422642085e-16 0.13015104714012912
  outer loop
    vertex -38.47901521270767 63.22930995326507 175.26320662141563
    vertex -38.572440757473636 61.72930995326511 174.551488308397
    vertex -38.47901521270767 61.72930995326507 175.26320662141563
  endloop
endfacet
facet normal -0.9914941779598749 4.110712422642085e-16 0.13015104714012912
  outer loop
    vertex -38.572440757473636 61.72930995326511 174.551488308397
    vertex -38.47901521270767 63.22930995326507 175.26320662141563
    vertex -38.572440757473636 63.22930995326511 174.551488308397
  endloop
endfacet
facet normal -0.924274780793772 3.905537089464368e-16 0.38172782134477046
  outer loop
    vertex -38.210157951162984 61.7293099532651 175.91418874161744
    vertex -38.47901521270767 63.22930995326507 175.26320662141563
    vertex -38.47901521270767 61.72930995326507 175.26320662141563
  endloop
endfacet
facet normal -0.924274780793772 3.905537089464368e-16 0.38172782134477046
  outer loop
    vertex -38.47901521270767 63.22930995326507 175.26320662141563
    vertex -38.210157951162984 61.7293099532651 175.91418874161744
    vertex -38.210157951162984 63.229309953265094 175.91418874161744
  endloop
endfacet
facet normal -0.7942130723261974 3.4349021504588074e-16 0.6076393632296895
  outer loop
    vertex -37.78252920192016 63.22930995326509 176.47311952079866
    vertex -38.210157951162984 61.7293099532651 175.91418874161744
    vertex -37.78252920192016 61.72930995326509 176.47311952079866
  endloop
endfacet
facet normal -0.7942130723261974 3.4349021504588074e-16 0.6076393632296895
  outer loop
    vertex -38.210157951162984 61.7293099532651 175.91418874161744
    vertex -37.78252920192016 63.22930995326509 176.47311952079866
    vertex -38.210157951162984 63.229309953265094 175.91418874161744
  endloop
endfacet
facet normal -0.6098831276333982 2.7296917518752316e-16 0.7924913694344591
  outer loop
    vertex -37.22532525360054 61.72930995326509 176.90193086163808
    vertex -37.78252920192016 63.22930995326509 176.47311952079866
    vertex -37.78252920192016 61.72930995326509 176.47311952079866
  endloop
endfacet
facet normal -0.6098831276333982 2.7296917518752316e-16 0.7924913694344591
  outer loop
    vertex -37.78252920192016 63.22930995326509 176.47311952079866
    vertex -37.22532525360054 61.72930995326509 176.90193086163808
    vertex -37.22532525360054 63.22930995326509 176.90193086163808
  endloop
endfacet
facet normal -0.38364061340192473 1.8370603154105068e-16 0.9234824739802023
  outer loop
    vertex -36.576541297918496 61.72930995326509 177.17145397846608
    vertex -37.22532525360054 63.22930995326509 176.90193086163808
    vertex -37.22532525360054 61.72930995326509 176.90193086163808
  endloop
endfacet
facet normal -0.38364061340192473 1.8370603154105068e-16 0.9234824739802023
  outer loop
    vertex -37.22532525360054 63.22930995326509 176.90193086163808
    vertex -36.576541297918496 61.72930995326509 177.17145397846608
    vertex -36.576541297918496 63.22930995326509 177.17145397846608
  endloop
endfacet
facet normal -0.13090238102403087 8.17752222268839e-17 0.9913952625679827
  outer loop
    vertex -35.86722180101324 61.72930995326509 177.26511148779406
    vertex -36.576541297918496 63.22930995326509 177.17145397846608
    vertex -36.576541297918496 61.72930995326509 177.17145397846608
  endloop
endfacet
facet normal -0.13090238102403087 8.17752222268839e-17 0.9913952625679827
  outer loop
    vertex -36.576541297918496 63.22930995326509 177.17145397846608
    vertex -35.86722180101324 61.72930995326509 177.26511148779406
    vertex -35.86722180101324 63.22930995326509 177.26511148779406
  endloop
endfacet
facet normal -6.844284646024297e-16 -3.0614320033957947e-16 1.0
  outer loop
    vertex 26.46744124252352 -5.7637991633721 177.26511148779406
    vertex 24.96744124252368 23.568530792077212 177.2651114877941
    vertex 24.9674412425235 -5.763799163372112 177.26511148779406
  endloop
endfacet
facet normal -6.844284646024297e-16 -3.0614320033957947e-16 1.0
  outer loop
    vertex 9.401860268881242 61.72930995326507 177.26511148779406
    vertex -35.86722180101324 63.22930995326509 177.26511148779406
    vertex -35.86722180101324 61.72930995326509 177.26511148779406
  endloop
endfacet
facet normal -6.844284646024297e-16 -3.0614320033957947e-16 1.0
  outer loop
    vertex -35.86722180101324 63.22930995326509 177.26511148779406
    vertex 9.401860268881242 61.72930995326507 177.26511148779406
    vertex 10.41000296656352 63.229309953265094 177.2651114877941
  endloop
endfacet
facet normal -6.844284646024297e-16 -3.0614320033957947e-16 1.0
  outer loop
    vertex 10.41000296656352 63.229309953265094 177.2651114877941
    vertex 9.401860268881242 61.72930995326507 177.26511148779406
    vertex 24.891904471542706 23.75371771448205 177.2651114877941
  endloop
endfacet
facet normal -6.844284646024297e-16 -3.0614320033957947e-16 1.0
  outer loop
    vertex 10.41000296656352 63.229309953265094 177.2651114877941
    vertex 24.891904471542706 23.75371771448205 177.2651114877941
    vertex 26.467441242523698 23.8626870831669 177.2651114877941
  endloop
endfacet
facet normal -6.844284646024297e-16 -3.0614320033957947e-16 1.0
  outer loop
    vertex 26.467441242523698 23.8626870831669 177.2651114877941
    vertex 24.891904471542706 23.75371771448205 177.2651114877941
    vertex 24.96744124252368 23.568530792077212 177.2651114877941
  endloop
endfacet
facet normal -6.844284646024297e-16 -3.0614320033957947e-16 1.0
  outer loop
    vertex 26.467441242523698 23.8626870831669 177.2651114877941
    vertex 24.96744124252368 23.568530792077212 177.2651114877941
    vertex 26.46744124252352 -5.7637991633721 177.26511148779406
  endloop
endfacet
facet normal 0.9259346120242026 0.3776838549045873 -1.2691325204621103e-15
  outer loop
    vertex 10.41000296656352 63.22930995326507 90.16511148779406
    vertex 26.467441242523698 23.8626870831669 177.2651114877941
    vertex 26.467441242523698 23.862687083166893 90.16511148779405
  endloop
endfacet
facet normal 0.9259346120242026 0.3776838549045873 -1.2691325204621103e-15
  outer loop
    vertex 26.467441242523698 23.8626870831669 177.2651114877941
    vertex 10.41000296656352 63.22930995326507 90.16511148779406
    vertex 10.41000296656352 63.229309953265094 177.2651114877941
  endloop
endfacet
facet normal 1.0 4.715162598080106e-15 6.309083721144533e-16
  outer loop
    vertex 26.46744124252388 -8.408095265980348 92.16757138514065
    vertex 26.46744124252388 -8.502555384734892 174.55133737615938
    vertex 26.46744124252388 -8.502555384734892 92.87888559942867
  endloop
endfacet
facet normal 1.0 4.715162598080106e-15 6.309083721144533e-16
  outer loop
    vertex 26.46744124252388 -8.502555384734892 174.55133737615938
    vertex 26.46744124252388 -8.408095265980348 92.16757138514065
    vertex 26.46744124252388 -8.408095265980348 175.2626515904475
  endloop
endfacet
facet normal 1.0 4.715162598080106e-15 6.309083721144533e-16
  outer loop
    vertex 26.46744124252388 -8.408095265980348 175.2626515904475
    vertex 26.46744124252388 -8.408095265980348 92.16757138514065
    vertex 26.46744124252388 -8.136232340919028 91.51689091273157
  endloop
endfacet
facet normal 1.0 4.715162598080106e-15 6.309083721144533e-16
  outer loop
    vertex 26.46744124252388 -8.408095265980348 175.2626515904475
    vertex 26.46744124252388 -8.136232340919028 91.51689091273157
    vertex 26.46744124252388 -8.136232340919038 175.91333206285654
  endloop
endfacet
facet normal 1.0 4.715162598080106e-15 6.309083721144533e-16
  outer loop
    vertex 26.46744124252388 -8.136232340919038 175.91333206285654
    vertex 26.46744124252388 -8.136232340919028 91.51689091273157
    vertex 26.467441242523698 -7.703576014989604 176.4723228978585
  endloop
endfacet
facet normal 1.0 4.715162598080106e-15 6.309083721144533e-16
  outer loop
    vertex 26.467441242523698 -7.703576014989604 176.4723228978585
    vertex 26.46744124252388 -8.136232340919028 91.51689091273157
    vertex 26.46744124252388 -7.703576014989638 90.95790007772966
  endloop
endfacet
facet normal 1.0 4.715162598080106e-15 6.309083721144533e-16
  outer loop
    vertex 26.467441242523698 -7.703576014989604 176.4723228978585
    vertex 26.46744124252388 -7.703576014989638 90.95790007772966
    vertex 26.46744124252388 -7.139451822571612 90.52876175376892
  endloop
endfacet
facet normal 1.0 4.715162598080106e-15 6.309083721144533e-16
  outer loop
    vertex 26.467441242523698 -7.703576014989604 176.4723228978585
    vertex 26.46744124252388 -7.139451822571612 90.52876175376892
    vertex 26.46744124252388 -7.13945182257159 176.90146122181912
  endloop
endfacet
facet normal 1.0 4.715162598080106e-15 6.309083721144533e-16
  outer loop
    vertex 26.46744124252388 -7.13945182257159 176.90146122181912
    vertex 26.46744124252388 -7.139451822571612 90.52876175376892
    vertex 26.46744124252388 -6.482240142456316 90.25888113914824
  endloop
endfacet
facet normal 1.0 4.715162598080106e-15 6.309083721144533e-16
  outer loop
    vertex 26.46744124252388 -7.13945182257159 176.90146122181912
    vertex 26.46744124252388 -6.482240142456316 90.25888113914824
    vertex 26.46744124252388 -6.482240142456282 177.17134183643984
  endloop
endfacet
facet normal 1.0 4.715162598080106e-15 6.309083721144533e-16
  outer loop
    vertex 26.46744124252388 -6.482240142456282 177.17134183643984
    vertex 26.46744124252388 -6.482240142456316 90.25888113914824
    vertex 26.46744124252388 -5.7637991633721 90.16511148779405
  endloop
endfacet
facet normal 1.0 4.715162598080106e-15 6.309083721144533e-16
  outer loop
    vertex 26.46744124252388 -6.482240142456282 177.17134183643984
    vertex 26.46744124252388 -5.7637991633721 90.16511148779405
    vertex 26.46744124252352 -5.7637991633721 177.26511148779406
  endloop
endfacet
facet normal 1.0 4.715162598080106e-15 6.309083721144533e-16
  outer loop
    vertex 26.46744124252352 -5.7637991633721 177.26511148779406
    vertex 26.46744124252388 -5.7637991633721 90.16511148779405
    vertex 26.467441242523698 21.94956760740742 90.16511148779405
  endloop
endfacet
facet normal 1.0 4.715162598080106e-15 6.309083721144533e-16
  outer loop
    vertex 26.46744124252352 -5.7637991633721 177.26511148779406
    vertex 26.467441242523698 21.94956760740742 90.16511148779405
    vertex 26.467441242523698 23.8626870831669 177.2651114877941
  endloop
endfacet
facet normal 1.0 4.715162598080106e-15 6.309083721144533e-16
  outer loop
    vertex 26.467441242523698 23.8626870831669 177.2651114877941
    vertex 26.467441242523698 21.94956760740742 90.16511148779405
    vertex 26.467441242523698 23.862687083166893 90.16511148779405
  endloop
endfacet
endsolid GHU
